<svg width="53" height="48" viewBox="0 0 53 48" fill="none" xmlns="http://www.w3.org/2000/svg">
<path d="M45 23C45.5523 23 46 22.5523 46 22V16H52C52.5523 16 53 15.5523 53 15V8C53 7.44772 52.5523 7 52 7H46V1C46 0.447715 45.5523 0 45 0H38C37.4477 0 37 0.447715 37 1V7H31C30.4477 7 30 7.44772 30 8V15C30 15.5523 30.4477 16 31 16H37V22C37 22.5523 37.4477 23 38 23H45Z" fill="#14213d"/>
<path d="M21 8C21 7.44772 20.5523 7 20 7H2C1.44772 7 1 7.44772 1 8V15C1 15.5523 1.44772 16 2 16H20C20.5523 16 21 15.5523 21 15V8Z" fill="#14213d"/>
<path d="M50.0911 35.0163C50.3951 34.55 50.2314 33.9302 49.7493 33.6519L43.6542 30.1329C43.1832 29.8609 42.584 30.0172 42.2727 30.4632C38.9761 35.187 32.7494 38.4997 24.9996 38.4997C17.6991 38.4997 11.832 35.8213 8.42197 31.6019C8.09821 31.2013 7.53229 31.0756 7.08623 31.3332L0.944473 34.8791C0.446229 35.1668 0.291443 35.816 0.629385 36.2816C5.91011 43.5573 15.1865 47.4997 24.9996 47.4997C35.3553 47.4997 44.99 42.8409 50.0911 35.0163Z" fill="#14213d"/>
</svg>
